<?xml version="1.0" standalone="no"?>
<!DOCTYPE svg PUBLIC "-//W3C//DTD SVG 20010904//EN"
 "http://www.w3.org/TR/2001/REC-SVG-20010904/DTD/svg10.dtd">
<svg version="1.0" xmlns="http://www.w3.org/2000/svg"
 width="260.000000pt" height="260.000000pt" viewBox="0 0 260.000000 260.000000"
 preserveAspectRatio="xMidYMid meet">
<metadata>
Created by potrace 1.14, written by Peter Selinger 2001-2017
</metadata>
<g transform="translate(0.000000,260.000000) scale(0.100000,-0.100000)"
fill="#000000" stroke="none">
<path d="M809 2504 l-24 -26 -3 -573 -2 -573 26 -31 c24 -29 30 -31 93 -31 58
0 71 3 89 23 21 22 22 32 22 200 l0 177 28 31 28 31 115 -1 114 -1 43 -48 c24
-26 111 -129 194 -229 l150 -183 69 0 69 0 0 78 0 78 -95 115 c-84 100 -95
118 -90 144 8 42 18 48 75 46 44 -1 55 2 81 28 l29 29 0 224 0 224 -120 147
-121 147 -373 0 -373 0 -24 -26z m751 -279 c19 -20 25 -40 28 -88 4 -58 2 -65
-25 -94 l-29 -31 -233 -1 -234 0 -29 32 c-28 29 -30 36 -26 94 3 48 9 68 28
88 l23 25 237 0 237 0 23 -25z"/>
<path d="M1113 2173 c-25 -3 -34 -10 -39 -29 -12 -45 0 -54 71 -54 64 0 66 1
60 23 -8 23 -44 68 -54 65 -3 0 -21 -3 -38 -5z"/>
<path d="M1484 2135 c-18 -45 -18 -45 10 -45 31 0 45 19 39 53 -7 37 -31 34
-49 -8z"/>
<path d="M537 2166 c-8 -6 -21 -23 -30 -38 -16 -25 -23 -28 -73 -28 -52 0 -56
-2 -75 -35 -12 -19 -25 -35 -29 -35 -4 0 -13 -14 -19 -31 -10 -30 -13 -31 -49
-25 -47 7 -78 -12 -87 -54 -4 -19 -13 -30 -24 -30 -10 0 -27 -10 -39 -23 -22
-23 -22 -28 -22 -344 0 -312 -1 -321 -20 -326 -19 -5 -20 -14 -20 -235 l0
-231 -25 -19 -25 -20 2 -279 3 -278 187 -3 c178 -2 189 -1 208 18 11 11 18 25
14 31 -3 6 -3 21 0 35 6 24 8 24 124 24 144 0 158 4 165 40 8 40 55 36 91 -7
21 -25 36 -33 69 -35 40 -3 42 -5 45 -38 6 -63 21 -70 144 -70 l108 0 0 -27
c0 -16 9 -39 19 -52 17 -22 21 -23 162 -22 151 2 179 10 179 52 0 46 7 49 115
49 117 0 135 10 135 73 l0 37 44 0 c40 0 48 4 72 36 22 29 33 34 58 32 25 -2
32 -8 34 -30 2 -14 11 -29 20 -33 9 -4 72 -6 140 -5 l122 1 0 -39 c0 -65 22
-73 193 -70 l142 3 3 204 c2 179 0 205 -14 216 -17 12 -12 55 7 55 5 0 9 241
9 613 l0 613 -27 26 c-16 14 -36 28 -45 31 -10 4 -18 15 -18 26 0 35 -44 59
-95 53 -39 -4 -45 -2 -46 14 0 11 -15 39 -33 64 -31 42 -36 45 -89 50 -50 4
-58 8 -79 40 l-23 34 -130 -3 c-72 -1 -134 -6 -138 -11 -5 -4 -7 -20 -5 -36
l3 -29 122 -3 123 -3 27 -34 c16 -19 36 -35 45 -35 9 0 20 -5 23 -10 5 -8 11
-7 20 0 8 7 22 10 31 8 17 -3 18 -22 15 -243 -2 -192 1 -250 13 -290 20 -66
17 -565 -3 -603 -10 -19 -10 -28 4 -48 13 -20 22 -24 43 -19 l27 6 -3 -112
c-4 -89 -2 -111 9 -107 10 3 12 29 10 108 -1 57 -6 113 -11 125 -13 34 3 51
37 39 l28 -9 3 -141 c2 -117 0 -143 -13 -154 -18 -15 -20 -40 -4 -40 7 0 18 8
25 17 21 28 35 -2 32 -71 -3 -67 -20 -83 -37 -35 -9 27 -14 30 -35 25 -31 -8
-43 10 -22 33 9 10 16 21 16 24 0 14 -26 6 -43 -13 -22 -26 -64 -26 -72 0 -7
22 -45 28 -45 8 -1 -29 -17 -40 -49 -33 -49 11 -36 65 16 65 16 0 23 6 23 20
0 11 -6 20 -12 21 -46 4 -172 10 -215 10 -39 1 -53 5 -53 15 0 21 275 21 284
-1 3 -8 11 -15 18 -15 22 0 58 46 58 74 0 23 -2 25 -19 16 -11 -6 -87 -10
-175 -10 -145 0 -157 -1 -168 -20 -18 -28 -93 -28 -108 0 -7 12 -25 22 -50 26
-34 6 -40 10 -40 30 0 23 -2 24 -86 24 l-85 0 3 -28 c3 -27 4 -27 86 -30 79
-3 83 -4 80 -25 -3 -21 -8 -22 -83 -22 -75 0 -80 1 -83 22 -2 14 -11 23 -25
25 -15 2 -23 11 -25 30 -2 14 -10 32 -19 39 -13 11 -18 10 -34 -10 -11 -13
-19 -31 -19 -41 0 -12 -9 -20 -22 -22 -15 -2 -24 -11 -26 -25 -3 -19 1 -23 23
-23 22 0 26 -4 23 -22 -2 -15 -11 -24 -25 -26 -13 -2 -23 -11 -25 -25 -2 -12
-11 -23 -20 -25 -14 -3 -18 3 -18 26 0 17 6 32 15 36 19 7 20 36 1 36 -19 0
-28 142 -25 393 l2 202 -24 0 -24 0 -1 -285 c-1 -331 0 -310 -19 -310 -21 0
-19 -23 6 -43 25 -22 21 -52 -6 -52 -14 0 -21 8 -23 27 -3 22 -9 28 -28 28
-17 0 -24 5 -24 20 0 15 7 20 25 20 20 0 25 5 25 25 0 20 -5 25 -25 25 -18 0
-25 -5 -25 -19 0 -26 -15 -34 -46 -27 -15 4 -24 14 -24 26 0 38 -38 36 -55 -2
-9 -20 -17 -22 -82 -21 -77 2 -93 6 -93 28 0 34 -70 25 -84 -10 -3 -9 -16 -15
-28 -14 -53 5 -76 -1 -81 -22 -4 -16 -13 -20 -49 -19 -24 1 -60 -2 -80 -5 -54
-11 -148 3 -148 21 0 8 3 14 8 15 4 0 59 2 122 3 153 3 150 3 150 26 0 19 -7
20 -157 20 -87 0 -168 3 -180 6 -19 5 -23 2 -23 -14 0 -12 9 -26 21 -32 33
-18 21 -54 -19 -58 -25 -3 -32 -8 -30 -20 2 -9 10 -18 18 -18 8 -1 23 -2 33
-3 21 -1 23 -37 1 -45 -33 -13 -52 -5 -102 42 l-52 49 0 137 0 136 27 11 c14
5 32 8 40 5 15 -6 18 -52 3 -61 -6 -3 -10 -52 -10 -111 0 -85 3 -104 15 -104
11 0 15 21 17 107 3 104 4 107 27 113 36 8 49 35 31 62 -11 19 -15 77 -17 292
-2 248 -1 272 17 315 18 42 20 64 16 256 -3 116 -6 224 -8 240 -3 29 -1 30 37
31 57 1 78 10 98 44 17 28 20 29 105 32 l87 3 3 33 c2 20 -2 34 -10 36 -33 11
-169 12 -181 2z m-172 -521 c0 -114 -2 -130 -17 -133 -15 -3 -17 10 -20 116
-4 141 -2 154 20 150 15 -3 17 -20 17 -133z m1990 0 c0 -123 -1 -130 -20 -130
-18 0 -19 6 -17 120 1 66 2 126 2 133 0 8 8 12 18 10 15 -3 17 -17 17 -133z
m-2037 -267 c-2 -93 -6 -113 -18 -113 -12 0 -16 19 -18 99 -3 110 0 126 23
126 13 0 15 -16 13 -112z m2082 -7 c0 -87 -4 -122 -13 -130 -8 -6 -17 -8 -20
-4 -4 3 -7 62 -7 130 0 116 1 123 20 123 19 0 20 -7 20 -119z m-2 -306 c3
-142 -3 -170 -33 -145 -12 10 -15 37 -15 139 0 86 4 131 12 139 27 27 33 3 36
-133z m-2074 119 c12 -32 6 -240 -7 -259 -28 -38 -37 -7 -37 129 0 73 3 136 7
139 11 12 31 7 37 -9z m-177 -46 c-3 -8 -6 -5 -6 6 -1 11 2 17 5 13 3 -3 4
-12 1 -19z m1383 -483 c0 -22 -4 -25 -35 -25 -31 0 -35 3 -35 25 0 22 4 25 35
25 31 0 35 -3 35 -25z m-390 -94 c0 -20 -6 -30 -19 -34 -24 -6 -31 0 -31 28 0
26 8 35 32 35 13 0 18 -8 18 -29z m-287 -13 c27 -36 16 -60 -25 -56 -37 3 -44
20 -28 62 12 32 26 30 53 -6z m-582 -27 c44 -40 46 -61 6 -54 -18 4 -26 -2
-35 -22 -18 -39 -37 -26 -38 26 0 42 10 89 20 89 3 0 24 -17 47 -39z m237 -3
c-4 -29 -52 -38 -62 -13 -9 25 1 35 35 35 26 0 30 -3 27 -22z m227 -7 c-6 -4
-27 -11 -47 -14 -29 -4 -38 -2 -38 9 0 10 13 14 47 14 27 0 43 -4 38 -9z
m1178 2 c-13 -2 -33 -2 -45 0 -13 2 -3 4 22 4 25 0 35 -2 23 -4z m117 -9 c0
-12 -6 -15 -22 -10 -13 3 -33 6 -46 6 -13 0 -20 4 -17 10 3 6 24 10 46 10 29
0 39 -4 39 -16z m-955 -4 c-3 -5 -19 -10 -36 -10 -16 0 -29 5 -29 10 0 6 16
10 36 10 21 0 33 -4 29 -10z m282 -6 c8 -21 -13 -42 -28 -27 -13 13 -5 43 11
43 6 0 13 -7 17 -16z m286 6 c-18 -4 -40 -13 -48 -20 -16 -14 -18 -10 -9 14 4
11 18 16 48 15 41 -1 41 -1 9 -9z m-1058 -41 c0 -8 -10 -15 -22 -17 -25 -4
-30 7 -11 26 15 15 33 10 33 -9z m975 -24 c-5 -22 -10 -63 -10 -92 0 -47 -3
-54 -35 -78 -30 -23 -33 -29 -22 -46 9 -14 9 -24 1 -37 -16 -25 -40 -26 -70
-3 -30 24 -112 29 -161 10 -25 -9 -31 -7 -50 16 -13 14 -23 32 -23 39 0 7 -11
18 -23 23 -21 10 -25 20 -30 89 -4 42 -12 83 -18 90 -14 17 -5 18 24 2 31 -18
37 -28 37 -71 0 -24 5 -40 15 -43 8 -3 24 -21 36 -40 l21 -34 87 0 c91 0 108
7 124 53 4 9 13 17 21 17 16 0 31 34 22 49 -4 5 -2 20 3 33 9 24 50 72 56 66
2 -2 0 -21 -5 -43z m580 26 c0 -15 -16 -22 -34 -15 -25 9 -19 24 9 24 14 0 25
-4 25 -9z m-1672 -40 c10 -6 8 -10 -9 -14 -24 -7 -39 -1 -39 14 0 11 30 12 48
0z m1796 0 c9 -13 -15 -19 -54 -13 l-35 6 30 7 c44 10 53 10 59 0z m-1954 -66
c0 -7 -13 -15 -30 -17 -33 -5 -34 -4 -20 22 11 20 50 17 50 -5z m2120 0 c0
-16 -26 -20 -55 -9 -13 5 -14 8 -3 15 22 14 58 10 58 -6z m-2330 -25 c0 -5 -4
-10 -10 -10 -5 0 -10 5 -10 10 0 6 5 10 10 10 6 0 10 -4 10 -10z m140 -10 c0
-5 -4 -10 -10 -10 -5 0 -10 5 -10 10 0 6 5 10 10 10 6 0 10 -4 10 -10z m2225
0 c3 -5 2 -10 -4 -10 -5 0 -13 5 -16 10 -3 6 -2 10 4 10 5 0 13 -4 16 -10z"/>
<path d="M2224 1775 c0 -82 2 -115 3 -72 2 43 2 110 0 150 -1 40 -3 5 -3 -78z"/>
<path d="M454 1775 c0 -49 1 -71 3 -48 2 23 2 64 0 90 -2 26 -3 8 -3 -42z"/>
<path d="M451 1635 c1 -16 5 -41 9 -55 7 -22 8 -20 9 15 0 22 -4 47 -9 55 -7
11 -9 8 -9 -15z"/>
<path d="M1225 1650 c-11 -17 5 -51 23 -48 23 4 23 52 0 56 -9 2 -19 -2 -23
-8z"/>
<path d="M1309 1603 c-1 -5 0 -71 1 -148 1 -103 5 -144 15 -154 11 -11 17 -12
28 -3 10 8 13 39 12 119 -2 146 -2 147 -24 171 -19 23 -30 28 -32 15z"/>
<path d="M453 1505 c0 -22 2 -30 4 -17 2 12 2 30 0 40 -3 9 -5 -1 -4 -23z"/>
<path d="M2222 1505 c0 -16 2 -22 5 -12 2 9 2 23 0 30 -3 6 -5 -1 -5 -18z"/>
<path d="M2218 783 c-22 -24 -23 -43 -3 -43 18 0 28 21 23 46 -3 14 -5 14 -20
-3z"/>
<path d="M442 773 c2 -11 14 -19 31 -21 31 -4 35 5 10 24 -25 19 -45 17 -41
-3z"/>
<path d="M525 760 c4 -6 72 -10 171 -10 108 0 163 3 159 10 -4 6 -72 10 -171
10 -108 0 -163 -3 -159 -10z"/>
<path d="M924 746 c-3 -8 -4 -23 -2 -33 3 -16 14 -18 88 -18 82 0 85 1 88 24
5 33 -12 41 -96 41 -54 0 -74 -4 -78 -14z"/>
<path d="M1152 747 c-6 -7 -9 -23 -5 -35 4 -16 13 -22 35 -22 27 0 29 2 26 33
-2 24 -8 33 -24 35 -11 2 -26 -3 -32 -11z"/>
<path d="M1858 753 c29 -2 74 -2 100 0 26 2 2 3 -53 3 -55 0 -76 -1 -47 -3z"/>
<path d="M2058 753 c7 -3 16 -2 19 1 4 3 -2 6 -13 5 -11 0 -14 -3 -6 -6z"/>
<path d="M2297 584 c-4 -4 -7 -16 -7 -26 0 -13 7 -18 26 -18 21 0 25 4 22 22
-3 23 -27 35 -41 22z"/>
</g>
</svg>
